<mxfile host="app.diagrams.net" modified="2024-05-28T06:57:18.879Z" agent="Mozilla/5.0 (Windows NT 10.0; Win64; x64) AppleWebKit/537.36 (KHTML, like Gecko) Chrome/125.0.0.0 Safari/537.36" etag="6aB4Z6UQJ_E0-0nO9lpG" version="24.4.9" type="github">
  <diagram name="Page-1" id="jZk91KGq8QkyCAppdN_9">
    <mxGraphModel dx="1434" dy="746" grid="1" gridSize="10" guides="1" tooltips="1" connect="1" arrows="1" fold="1" page="1" pageScale="1" pageWidth="850" pageHeight="1100" math="0" shadow="0">
      <root>
        <mxCell id="0" />
        <mxCell id="1" parent="0" />
        <mxCell id="aeaBADUBRxlJ6GS4MZa5-1" value="" style="image;html=1;image=img/lib/clip_art/networking/Wireless_Router_N_128x128.png" vertex="1" parent="1">
          <mxGeometry x="385" y="540" width="80" height="80" as="geometry" />
        </mxCell>
        <mxCell id="aeaBADUBRxlJ6GS4MZa5-2" value="" style="image;html=1;image=img/lib/clip_art/networking/Router_Icon_128x128.png" vertex="1" parent="1">
          <mxGeometry x="360" y="130" width="80" height="80" as="geometry" />
        </mxCell>
        <mxCell id="aeaBADUBRxlJ6GS4MZa5-3" value="" style="outlineConnect=0;dashed=0;verticalLabelPosition=bottom;verticalAlign=top;align=center;html=1;shape=mxgraph.aws3.router;fillColor=#F58534;gradientColor=none;" vertex="1" parent="1">
          <mxGeometry x="80" y="380" width="69" height="72" as="geometry" />
        </mxCell>
        <mxCell id="aeaBADUBRxlJ6GS4MZa5-4" value="" style="image;aspect=fixed;html=1;points=[];align=center;fontSize=12;image=img/lib/azure2/databases/SQL_Server.svg;" vertex="1" parent="1">
          <mxGeometry x="690" y="390" width="68" height="68" as="geometry" />
        </mxCell>
        <mxCell id="aeaBADUBRxlJ6GS4MZa5-5" value="" style="image;aspect=fixed;html=1;points=[];align=center;fontSize=12;image=img/lib/azure2/databases/SQL_Server.svg;" vertex="1" parent="1">
          <mxGeometry x="680" y="240" width="68" height="68" as="geometry" />
        </mxCell>
        <mxCell id="aeaBADUBRxlJ6GS4MZa5-7" style="edgeStyle=orthogonalEdgeStyle;rounded=0;orthogonalLoop=1;jettySize=auto;html=1;exitX=1;exitY=0.5;exitDx=0;exitDy=0;" edge="1" parent="1" source="aeaBADUBRxlJ6GS4MZa5-6" target="aeaBADUBRxlJ6GS4MZa5-2">
          <mxGeometry relative="1" as="geometry" />
        </mxCell>
        <mxCell id="aeaBADUBRxlJ6GS4MZa5-8" style="edgeStyle=orthogonalEdgeStyle;rounded=0;orthogonalLoop=1;jettySize=auto;html=1;exitX=0.5;exitY=1;exitDx=0;exitDy=0;" edge="1" parent="1" source="aeaBADUBRxlJ6GS4MZa5-6" target="aeaBADUBRxlJ6GS4MZa5-3">
          <mxGeometry relative="1" as="geometry" />
        </mxCell>
        <mxCell id="aeaBADUBRxlJ6GS4MZa5-9" style="edgeStyle=orthogonalEdgeStyle;rounded=0;orthogonalLoop=1;jettySize=auto;html=1;" edge="1" parent="1" source="aeaBADUBRxlJ6GS4MZa5-6" target="aeaBADUBRxlJ6GS4MZa5-5">
          <mxGeometry relative="1" as="geometry" />
        </mxCell>
        <mxCell id="aeaBADUBRxlJ6GS4MZa5-10" style="edgeStyle=orthogonalEdgeStyle;rounded=0;orthogonalLoop=1;jettySize=auto;html=1;exitX=0.5;exitY=1;exitDx=0;exitDy=0;" edge="1" parent="1" source="aeaBADUBRxlJ6GS4MZa5-6" target="aeaBADUBRxlJ6GS4MZa5-4">
          <mxGeometry relative="1" as="geometry" />
        </mxCell>
        <mxCell id="aeaBADUBRxlJ6GS4MZa5-6" value="" style="image;html=1;image=img/lib/clip_art/computers/Server_Tower_128x128.png" vertex="1" parent="1">
          <mxGeometry x="80" y="50" width="80" height="80" as="geometry" />
        </mxCell>
        <mxCell id="aeaBADUBRxlJ6GS4MZa5-11" style="edgeStyle=orthogonalEdgeStyle;rounded=0;orthogonalLoop=1;jettySize=auto;html=1;exitX=0.5;exitY=0;exitDx=0;exitDy=0;" edge="1" parent="1" source="aeaBADUBRxlJ6GS4MZa5-1" target="aeaBADUBRxlJ6GS4MZa5-1">
          <mxGeometry relative="1" as="geometry" />
        </mxCell>
      </root>
    </mxGraphModel>
  </diagram>
</mxfile>
